<?xml version="1.0" standalone="no"?>
<!DOCTYPE svg PUBLIC "-//W3C//DTD SVG 20010904//EN"
 "http://www.w3.org/TR/2001/REC-SVG-20010904/DTD/svg10.dtd">
<svg version="1.0" xmlns="http://www.w3.org/2000/svg"
 width="512.000000pt" height="512.000000pt" viewBox="0 0 512.000000 512.000000"
 preserveAspectRatio="xMidYMid meet">
<metadata>
Created by potrace 1.14, written by Peter Selinger 2001-2017
</metadata>
<g transform="translate(0.000000,512.000000) scale(0.100000,-0.100000)"
fill="#000000" stroke="none">
<path d="M4082 4935 c-145 -41 -254 -143 -302 -284 -25 -76 -28 -182 -6 -253
10 -33 10 -46 3 -41 -7 4 -41 26 -77 48 -72 46 -312 165 -333 165 -7 0 -17 4
-23 9 -20 18 -289 94 -379 108 -16 2 -55 8 -85 14 -147 26 -484 28 -610 4 -14
-3 -45 -7 -70 -10 -248 -30 -607 -172 -860 -341 -516 -343 -857 -881 -956
-1509 -19 -119 -25 -424 -11 -550 25 -234 90 -470 186 -682 38 -84 62 -130
131 -248 24 -40 163 -228 221 -297 l31 -38 -56 4 c-63 5 -158 -14 -219 -45
-268 -135 -318 -504 -95 -704 175 -157 436 -150 598 17 99 101 140 232 118
372 -4 28 -6 51 -4 53 1 2 36 -19 77 -46 184 -122 430 -230 654 -286 544 -138
1112 -66 1601 200 73 40 269 167 284 184 3 3 30 26 60 51 259 209 489 517 623
832 69 162 133 387 152 538 4 30 11 82 15 115 8 62 5 424 -3 461 -3 12 -8 45
-12 75 -14 112 -75 353 -110 434 -7 17 -18 46 -26 65 -20 56 -113 241 -159
316 -67 111 -149 221 -242 325 l-87 97 62 -2 c343 -15 568 370 384 657 -59 91
-145 157 -252 192 -44 14 -171 15 -223 0z"/>
</g>
</svg>
