<svg id="Layer_1" data-name="Layer 1" xmlns="http://www.w3.org/2000/svg" viewBox="0 0 439.81 477.75"><defs><style>.cls-1{fill:#ffd4f8;stroke-width:9px;}.cls-1,.cls-2{stroke:#000;stroke-miterlimit:10;}.cls-2{stroke-width:6px;}</style></defs><circle class="cls-1" cx="219.9" cy="242.4" r="215.4"/><circle class="cls-2" cx="219.9" cy="374.11" r="28.11"/><circle class="cls-2" cx="354.8" cy="246.6" r="28.11"/><path d="M324.54,392.87c8.73,2,18.62,3.45,27.34.51A24.48,24.48,0,0,0,359.8,389a21.55,21.55,0,0,0,6.67-11c.58-2,1-4,1.64-6,.17-.56.35-1.12.56-1.67.08-.23.17-.45.25-.68.41-1.09-.16.34.12-.3a26.3,26.3,0,0,1,1.8-3.35,24.59,24.59,0,0,1,11.11-9.3l.77-.34c.6-.26-.8.32.18-.07l1.36-.54c.91-.36,1.83-.72,2.74-1.1a24.55,24.55,0,0,0,5.52-2.93,18,18,0,0,0,6.36-9c3-9.25-.92-19.6-4.87-27.91-.87-1.82-3.49-2.3-5.13-1.34a3.82,3.82,0,0,0-1.34,5.13,53.28,53.28,0,0,1,4.5,13.18c0,.24.24,1.64.12.65,0,.38.09.76.12,1.14.08.83.11,1.67.11,2.51,0,.67-.06,1.34-.12,2-.09,1.09.16-.73,0,.31-.07.34-.13.68-.21,1a16,16,0,0,1-.46,1.58,3,3,0,0,0-.28.77s.41-.91.17-.41c-.08.15-.15.31-.22.46a16,16,0,0,1-.81,1.46L390,344c.08-.12.45-.52,0,0s-.68.76-1.06,1.11c-.18.17-1,.83-.37.35-.4.29-.8.56-1.22.81a20.85,20.85,0,0,1-2.35,1.21l-.55.24c.75-.32.1,0-.09,0l-1.3.52c-.9.35-1.81.7-2.7,1.08a31.85,31.85,0,0,0-19.9,22.34c-.51,1.87-.93,3.76-1.53,5.61-.13.39-.28.78-.42,1.18-.33.94.24-.42,0,.12-.1.19-.18.38-.27.57a14.09,14.09,0,0,1-.69,1.27c-.12.19-.23.37-.36.55s-.67.92-.21.34a15.65,15.65,0,0,1-2,2.07l-.52.44c-.41.37.33-.25.35-.26a3.28,3.28,0,0,0-.44.32,18.68,18.68,0,0,1-3,1.76l-.48.22c-.41.2.81-.3.19-.08-.39.13-.78.29-1.18.42-.77.25-1.56.47-2.35.65-.47.11-.95.2-1.42.28l-.54.09c-.79.14.76-.07-.12,0s-2,.19-3,.23a50,50,0,0,1-7.13-.28c-1.45-.16-2-.24-3.58-.51-1.7-.29-3.39-.64-5.07-1a3.75,3.75,0,0,0-2,7.23Z" transform="translate(-36.1 -17.12)"/><text x="-36.1" y="-17.12"/><path class="cls-2" d="M409.56,419.35" transform="translate(-36.1 -17.12)"/><circle class="cls-1" cx="382.92" cy="43.27" r="38.77"/><circle class="cls-1" cx="50.19" cy="434.48" r="38.77"/></svg>