<svg id="Layer_2" data-name="Layer 2" xmlns="http://www.w3.org/2000/svg" viewBox="0 0 512 512"><defs><style>.cls-1{fill:#45932f;}.cls-1,.cls-2{stroke:#231f20;stroke-miterlimit:10;}.cls-2{fill:#5faf45;}</style></defs><path class="cls-1" d="M488.28,213.47A107.3,107.3,0,0,0,329.7,119.26,107.18,107.18,0,0,0,285.3,95,107.29,107.29,0,0,0,126,155.86,107.24,107.24,0,0,0,109.14,368,107.29,107.29,0,0,0,251.26,405.1a107.26,107.26,0,0,0,178.32-95c.07-.38.16-.76.23-1.15A107.23,107.23,0,0,0,488.28,213.47Z"/><path class="cls-2" d="M383.71,232.62a59,59,0,0,0-87.19-51.8,58.88,58.88,0,0,0-24.41-13.35,59,59,0,0,0-87.6,33.47,59,59,0,0,0-9.26,116.64A59,59,0,0,0,253.39,338a59,59,0,0,0,98.68-43.61,59.66,59.66,0,0,0-.63-8.61l.12-.63A59,59,0,0,0,383.71,232.62Z"/></svg>